<?xml version="1.0" encoding="UTF-8" standalone="no" ?>
<!DOCTYPE svg PUBLIC "-//W3C//DTD SVG 1.1//EN" "http://www.w3.org/Graphics/SVG/1.1/DTD/svg11.dtd">
<svg xmlns="http://www.w3.org/2000/svg" xmlns:xlink="http://www.w3.org/1999/xlink" version="1.1" width="452" height="452" viewBox="0 0 452 452" xml:space="preserve">
<!-- Created with SVG Stack Editor - https://svgstack.com -->
<defs>
</defs>
<rect x="0" y="0" width="100%" height="100%" fill="transparent"></rect>
<g transform="matrix(0.54 0 0 0.54 226 226)"  >
<g style=""   >
		<g transform="matrix(2 0 0 2 -258.12 -182.09)" id="path_0"  >
<path style="stroke: none; stroke-width: 1; stroke-dasharray: none; stroke-linecap: butt; stroke-dashoffset: 0; stroke-linejoin: miter; stroke-miterlimit: 4; fill: rgb(222,180,130); fill-rule: nonzero; opacity: 1;"  transform=" translate(-142.9, -165.2)" d="M 141.988 145.349 C 167.27 143.671 169.899 182.777 143.705 185.111 C 117.941 184.148 116.513 148.12 141.988 145.349 Z" stroke-linecap="round" />
</g>
		<g transform="matrix(2 0 0 2 -173.95 -249.52)" id="path_1"  >
<path style="stroke: none; stroke-width: 1; stroke-dasharray: none; stroke-linecap: butt; stroke-dashoffset: 0; stroke-linejoin: miter; stroke-miterlimit: 4; fill: rgb(222,180,130); fill-rule: nonzero; opacity: 1;"  transform=" translate(-184.98, -131.49)" d="M 183.955 106.854 C 215.945 105.71 217.585 154.103 185.812 156.102 C 157.155 157.822 149.683 111.326 183.955 106.854 Z" stroke-linecap="round" />
</g>
		<g transform="matrix(2 0 0 2 232.39 -112.35)" id="path_2"  >
<path style="stroke: none; stroke-width: 1; stroke-dasharray: none; stroke-linecap: butt; stroke-dashoffset: 0; stroke-linejoin: miter; stroke-miterlimit: 4; fill: rgb(94,180,59); fill-rule: nonzero; opacity: 1;"  transform=" translate(-388.15, -200.07)" d="M 390.471 177.105 C 400.67 176.342 410.91 178.67 420.305 182.512 C 412.976 197.408 406.776 214.781 389.7 220.992 C 380.419 224.367 367.737 223.812 358.807 219.616 C 362.789 215.77 367.018 212.185 371.425 208.837 C 376.172 205.31 390.848 197.379 393.199 195.166 L 392.945 195.101 C 391.333 196.067 389.553 196.632 387.839 197.384 C 376.916 202.178 366.231 208.388 356.18 214.753 C 354.087 194.135 370.941 178.741 390.471 177.105 Z" stroke-linecap="round" />
</g>
		<g transform="matrix(2 0 0 2 -58.49 -283.35)" id="path_3"  >
<path style="stroke: none; stroke-width: 1; stroke-dasharray: none; stroke-linecap: butt; stroke-dashoffset: 0; stroke-linejoin: miter; stroke-miterlimit: 4; fill: rgb(222,180,130); fill-rule: nonzero; opacity: 1;"  transform=" translate(-242.71, -114.58)" d="M 241.095 89.2553 C 273.986 86.3967 277.21 136.994 244.963 140.008 C 208.608 140.525 210.451 90.5829 241.095 89.2553 Z" stroke-linecap="round" />
</g>
		<g transform="matrix(2 0 0 2 132.46 -300.5)" id="path_4"  >
<path style="stroke: none; stroke-width: 1; stroke-dasharray: none; stroke-linecap: butt; stroke-dashoffset: 0; stroke-linejoin: miter; stroke-miterlimit: 4; fill: rgb(94,180,59); fill-rule: nonzero; opacity: 1;"  transform=" translate(-338.19, -106)" d="M 353.753 46.235 C 354.112 46.1947 354.247 46.2503 354.582 46.363 C 365.127 60.2037 373.817 76.1503 376.074 93.6214 C 379.994 123.965 362.413 156.438 331.988 164.462 C 320.714 167.435 324.425 165.431 327.39 157.916 C 333.506 142.411 337.747 122.761 341.698 106.564 C 343.248 100.212 344.108 93.4726 346.345 87.3275 C 346.293 86.1555 346.333 84.9746 346.345 83.8015 C 345.438 86.0057 344.993 88.4842 344.384 90.7897 C 339.526 109.183 328.694 146.399 317.573 162.293 C 280.15 121.318 306.228 65.0355 353.753 46.235 Z" stroke-linecap="round" />
</g>
		<g transform="matrix(2 0 0 2 -42.74 108.91)" id="path_5"  >
<path style="stroke: none; stroke-width: 1; stroke-dasharray: none; stroke-linecap: butt; stroke-dashoffset: 0; stroke-linejoin: miter; stroke-miterlimit: 4; fill: rgb(222,180,130); fill-rule: nonzero; opacity: 1;"  transform=" translate(-250.59, -310.7)" d="M 252.886 155.239 C 283.149 154.196 314.779 160.216 335.757 184.125 C 363.953 216.262 356.83 262.549 329.985 293.05 C 318.759 305.805 306.06 317.286 297.311 332.03 C 273.149 372.745 280.502 434.067 231.9 460.867 C 215.046 469.658 194.566 467.489 179.355 456.168 C 160.623 442.226 155.429 417.717 158.544 395.646 C 160.574 381.262 165.224 367.4 167.194 352.944 C 170.714 327.107 164.956 312.01 155.914 289.421 C 143.718 258.956 143.152 227.83 163.78 200.33 C 186.34 170.255 217.874 160.198 252.886 155.239 Z M 249.73 230.331 C 220.655 234.273 220.258 290.05 257.177 286.712 C 287.676 281.999 286.88 227.443 249.73 230.331 Z M 302.052 222.972 C 296.048 223.636 291.07 225.865 287.222 230.649 C 275.601 245.097 290.219 253.373 294.972 246.06 C 297.411 242.309 297.026 236.973 302.465 235.745 C 306.761 234.774 310.73 236.774 311.652 241.187 C 314.336 254.033 280.726 266.816 282.862 279.59 C 283.338 282.437 285.136 285.126 287.84 286.237 C 293.578 286.503 299.398 286.227 305.146 286.221 C 310.347 286.215 324.828 288.449 324.765 279.967 C 324.699 271.121 305.764 273.98 300.247 273.968 C 309.885 266.606 322.941 257.606 324.599 244.857 C 326.287 231.867 315.358 220.537 302.052 222.972 Z M 202.262 230.331 C 177.041 230.673 171.214 265.655 187.705 281.004 C 207.72 299.632 237.416 270.123 218.054 265.878 L 217.715 265.877 C 210.812 265.9 210.296 274.311 203.545 274.531 C 190.283 274.963 188.662 252.013 196.502 244.629 C 205.984 235.698 210.902 251.363 216.577 251.707 C 220.598 251.95 223.581 248.662 224.36 245.013 C 222.111 236.435 211.264 228.563 202.262 230.331 Z" stroke-linecap="round" />
</g>
		<g transform="matrix(2 0 0 2 -33.49 156.8)" id="path_6"  >
<path style="stroke: none; stroke-width: 1; stroke-dasharray: none; stroke-linecap: butt; stroke-dashoffset: 0; stroke-linejoin: miter; stroke-miterlimit: 4; fill: rgb(70,147,85); fill-rule: nonzero; opacity: 1;"  transform=" translate(-255.21, -334.65)" d="M 268.737 309.552 C 290.088 309.481 268.767 353.975 257.251 358.731 C 252.685 360.617 248.209 359.624 243.825 357.837 C 238.56 355.385 234.024 350.665 232.852 344.857 C 230.276 332.09 246.085 324.551 254.511 318.55 C 258.856 315.456 263.294 310.57 268.737 309.552 Z" stroke-linecap="round" />
</g>
		<g transform="matrix(2 0 0 2 -146.83 218.3)" id="path_7"  >
<path style="stroke: none; stroke-width: 1; stroke-dasharray: none; stroke-linecap: butt; stroke-dashoffset: 0; stroke-linejoin: miter; stroke-miterlimit: 4; fill: rgb(70,147,85); fill-rule: nonzero; opacity: 1;"  transform=" translate(-198.55, -365.4)" d="M 215.096 338.098 C 239.383 339.544 221.211 390.216 182.299 392.699 C 169.538 391.726 168.202 377.257 175.213 368.504 C 179.331 363.363 188.031 360.061 193.533 355.997 C 200.716 350.691 207.569 338.933 215.096 338.098 Z" stroke-linecap="round" />
</g>
		<g transform="matrix(2 0 0 2 -38.08 3.78)" id="path_8"  >
<path style="stroke: none; stroke-width: 1; stroke-dasharray: none; stroke-linecap: butt; stroke-dashoffset: 0; stroke-linejoin: miter; stroke-miterlimit: 4; fill: rgb(222,180,130); fill-rule: nonzero; opacity: 1;"  transform=" translate(-252.92, -258.14)" d="M 252.886 242.269 C 263.491 241.893 264.134 252.668 263.766 260.761 C 263.388 269.069 261.75 274.619 252.886 273.968 C 240.636 275.087 236.261 246.793 252.886 242.269 Z" stroke-linecap="round" />
</g>
		<g transform="matrix(2 0 0 2 -113.55 304)" id="path_9"  >
<path style="stroke: none; stroke-width: 1; stroke-dasharray: none; stroke-linecap: butt; stroke-dashoffset: 0; stroke-linejoin: miter; stroke-miterlimit: 4; fill: rgb(70,147,85); fill-rule: nonzero; opacity: 1;"  transform=" translate(-215.18, -408.25)" d="M 241.095 365.343 C 266.685 363.875 257.541 402.138 252.265 415.783 C 242.767 440.345 220.911 458.732 193.935 448.139 C 183.428 444.033 173.689 434.767 172.328 423.157 C 168.916 394.055 204.126 404.422 221.3 381.905 C 226.77 374.734 230.973 366.37 241.095 365.343 Z" stroke-linecap="round" />
</g>
</g>
</g>
<g transform="matrix(0.54 0 0 0.54 226 226)"  >
<g style=""   >
		<g transform="matrix(2 0 0 2 -258.12 -182.09)" id="path_0"  >
<path style="stroke: none; stroke-width: 1; stroke-dasharray: none; stroke-linecap: butt; stroke-dashoffset: 0; stroke-linejoin: miter; stroke-miterlimit: 4; fill: rgb(222,180,130); fill-rule: nonzero; opacity: 1;"  transform=" translate(-142.9, -165.2)" d="M 141.988 145.349 C 167.27 143.671 169.899 182.777 143.705 185.111 C 117.941 184.148 116.513 148.12 141.988 145.349 Z" stroke-linecap="round" />
</g>
		<g transform="matrix(2 0 0 2 -173.95 -249.52)" id="path_1"  >
<path style="stroke: none; stroke-width: 1; stroke-dasharray: none; stroke-linecap: butt; stroke-dashoffset: 0; stroke-linejoin: miter; stroke-miterlimit: 4; fill: rgb(222,180,130); fill-rule: nonzero; opacity: 1;"  transform=" translate(-184.98, -131.49)" d="M 183.955 106.854 C 215.945 105.71 217.585 154.103 185.812 156.102 C 157.155 157.822 149.683 111.326 183.955 106.854 Z" stroke-linecap="round" />
</g>
		<g transform="matrix(2 0 0 2 232.39 -112.35)" id="path_2"  >
<path style="stroke: none; stroke-width: 1; stroke-dasharray: none; stroke-linecap: butt; stroke-dashoffset: 0; stroke-linejoin: miter; stroke-miterlimit: 4; fill: rgb(94,180,59); fill-rule: nonzero; opacity: 1;"  transform=" translate(-388.15, -200.07)" d="M 390.471 177.105 C 400.67 176.342 410.91 178.67 420.305 182.512 C 412.976 197.408 406.776 214.781 389.7 220.992 C 380.419 224.367 367.737 223.812 358.807 219.616 C 362.789 215.77 367.018 212.185 371.425 208.837 C 376.172 205.31 390.848 197.379 393.199 195.166 L 392.945 195.101 C 391.333 196.067 389.553 196.632 387.839 197.384 C 376.916 202.178 366.231 208.388 356.18 214.753 C 354.087 194.135 370.941 178.741 390.471 177.105 Z" stroke-linecap="round" />
</g>
		<g transform="matrix(2 0 0 2 -58.49 -283.35)" id="path_3"  >
<path style="stroke: none; stroke-width: 1; stroke-dasharray: none; stroke-linecap: butt; stroke-dashoffset: 0; stroke-linejoin: miter; stroke-miterlimit: 4; fill: rgb(222,180,130); fill-rule: nonzero; opacity: 1;"  transform=" translate(-242.71, -114.58)" d="M 241.095 89.2553 C 273.986 86.3967 277.21 136.994 244.963 140.008 C 208.608 140.525 210.451 90.5829 241.095 89.2553 Z" stroke-linecap="round" />
</g>
		<g transform="matrix(2 0 0 2 132.46 -300.5)" id="path_4"  >
<path style="stroke: none; stroke-width: 1; stroke-dasharray: none; stroke-linecap: butt; stroke-dashoffset: 0; stroke-linejoin: miter; stroke-miterlimit: 4; fill: rgb(94,180,59); fill-rule: nonzero; opacity: 1;"  transform=" translate(-338.19, -106)" d="M 353.753 46.235 C 354.112 46.1947 354.247 46.2503 354.582 46.363 C 365.127 60.2037 373.817 76.1503 376.074 93.6214 C 379.994 123.965 362.413 156.438 331.988 164.462 C 320.714 167.435 324.425 165.431 327.39 157.916 C 333.506 142.411 337.747 122.761 341.698 106.564 C 343.248 100.212 344.108 93.4726 346.345 87.3275 C 346.293 86.1555 346.333 84.9746 346.345 83.8015 C 345.438 86.0057 344.993 88.4842 344.384 90.7897 C 339.526 109.183 328.694 146.399 317.573 162.293 C 280.15 121.318 306.228 65.0355 353.753 46.235 Z" stroke-linecap="round" />
</g>
		<g transform="matrix(2 0 0 2 -42.74 108.91)" id="path_5"  >
<path style="stroke: none; stroke-width: 1; stroke-dasharray: none; stroke-linecap: butt; stroke-dashoffset: 0; stroke-linejoin: miter; stroke-miterlimit: 4; fill: rgb(222,180,130); fill-rule: nonzero; opacity: 1;"  transform=" translate(-250.59, -310.7)" d="M 252.886 155.239 C 283.149 154.196 314.779 160.216 335.757 184.125 C 363.953 216.262 356.83 262.549 329.985 293.05 C 318.759 305.805 306.06 317.286 297.311 332.03 C 273.149 372.745 280.502 434.067 231.9 460.867 C 215.046 469.658 194.566 467.489 179.355 456.168 C 160.623 442.226 155.429 417.717 158.544 395.646 C 160.574 381.262 165.224 367.4 167.194 352.944 C 170.714 327.107 164.956 312.01 155.914 289.421 C 143.718 258.956 143.152 227.83 163.78 200.33 C 186.34 170.255 217.874 160.198 252.886 155.239 Z M 249.73 230.331 C 220.655 234.273 220.258 290.05 257.177 286.712 C 287.676 281.999 286.88 227.443 249.73 230.331 Z M 302.052 222.972 C 296.048 223.636 291.07 225.865 287.222 230.649 C 275.601 245.097 290.219 253.373 294.972 246.06 C 297.411 242.309 297.026 236.973 302.465 235.745 C 306.761 234.774 310.73 236.774 311.652 241.187 C 314.336 254.033 280.726 266.816 282.862 279.59 C 283.338 282.437 285.136 285.126 287.84 286.237 C 293.578 286.503 299.398 286.227 305.146 286.221 C 310.347 286.215 324.828 288.449 324.765 279.967 C 324.699 271.121 305.764 273.98 300.247 273.968 C 309.885 266.606 322.941 257.606 324.599 244.857 C 326.287 231.867 315.358 220.537 302.052 222.972 Z M 202.262 230.331 C 177.041 230.673 171.214 265.655 187.705 281.004 C 207.72 299.632 237.416 270.123 218.054 265.878 L 217.715 265.877 C 210.812 265.9 210.296 274.311 203.545 274.531 C 190.283 274.963 188.662 252.013 196.502 244.629 C 205.984 235.698 210.902 251.363 216.577 251.707 C 220.598 251.95 223.581 248.662 224.36 245.013 C 222.111 236.435 211.264 228.563 202.262 230.331 Z" stroke-linecap="round" />
</g>
		<g transform="matrix(2 0 0 2 -33.49 156.8)" id="path_6"  >
<path style="stroke: none; stroke-width: 1; stroke-dasharray: none; stroke-linecap: butt; stroke-dashoffset: 0; stroke-linejoin: miter; stroke-miterlimit: 4; fill: rgb(70,147,85); fill-rule: nonzero; opacity: 1;"  transform=" translate(-255.21, -334.65)" d="M 268.737 309.552 C 290.088 309.481 268.767 353.975 257.251 358.731 C 252.685 360.617 248.209 359.624 243.825 357.837 C 238.56 355.385 234.024 350.665 232.852 344.857 C 230.276 332.09 246.085 324.551 254.511 318.55 C 258.856 315.456 263.294 310.57 268.737 309.552 Z" stroke-linecap="round" />
</g>
		<g transform="matrix(2 0 0 2 -146.83 218.3)" id="path_7"  >
<path style="stroke: none; stroke-width: 1; stroke-dasharray: none; stroke-linecap: butt; stroke-dashoffset: 0; stroke-linejoin: miter; stroke-miterlimit: 4; fill: rgb(70,147,85); fill-rule: nonzero; opacity: 1;"  transform=" translate(-198.55, -365.4)" d="M 215.096 338.098 C 239.383 339.544 221.211 390.216 182.299 392.699 C 169.538 391.726 168.202 377.257 175.213 368.504 C 179.331 363.363 188.031 360.061 193.533 355.997 C 200.716 350.691 207.569 338.933 215.096 338.098 Z" stroke-linecap="round" />
</g>
		<g transform="matrix(2 0 0 2 -38.08 3.78)" id="path_8"  >
<path style="stroke: none; stroke-width: 1; stroke-dasharray: none; stroke-linecap: butt; stroke-dashoffset: 0; stroke-linejoin: miter; stroke-miterlimit: 4; fill: rgb(222,180,130); fill-rule: nonzero; opacity: 1;"  transform=" translate(-252.92, -258.14)" d="M 252.886 242.269 C 263.491 241.893 264.134 252.668 263.766 260.761 C 263.388 269.069 261.75 274.619 252.886 273.968 C 240.636 275.087 236.261 246.793 252.886 242.269 Z" stroke-linecap="round" />
</g>
		<g transform="matrix(2 0 0 2 -113.55 304)" id="path_9"  >
<path style="stroke: none; stroke-width: 1; stroke-dasharray: none; stroke-linecap: butt; stroke-dashoffset: 0; stroke-linejoin: miter; stroke-miterlimit: 4; fill: rgb(70,147,85); fill-rule: nonzero; opacity: 1;"  transform=" translate(-215.18, -408.25)" d="M 241.095 365.343 C 266.685 363.875 257.541 402.138 252.265 415.783 C 242.767 440.345 220.911 458.732 193.935 448.139 C 183.428 444.033 173.689 434.767 172.328 423.157 C 168.916 394.055 204.126 404.422 221.3 381.905 C 226.77 374.734 230.973 366.37 241.095 365.343 Z" stroke-linecap="round" />
</g>
</g>
</g>
</svg>