<?xml version="1.0" encoding="utf-8" ?><!-- created by svgstack.com | Attribution is required. --><svg xmlns="http://www.w3.org/2000/svg" xmlns:xlink="http://www.w3.org/1999/xlink" width="1024" height="1024"><path fill="#00528B" d="M531.431 21.4581C554.806 21.4437 579.007 24.8273 601.931 29.2374Q606.428 30.1077 610.908 31.0613Q615.388 32.0148 619.85 33.0513Q624.312 34.0877 628.754 35.2067Q633.196 36.3257 637.616 37.5268Q642.036 38.728 646.433 40.0109Q650.831 41.2938 655.203 42.6579Q659.576 44.0221 663.923 45.4672Q668.269 46.9122 672.588 48.4376Q676.907 49.9629 681.197 51.5681Q685.487 53.1733 689.747 54.8577Q694.007 56.5421 698.234 58.3053Q702.462 60.0684 706.656 61.9096Q710.85 63.7508 715.01 65.6694Q719.169 67.5881 723.292 69.5835Q727.415 71.5789 731.501 73.6504Q735.586 75.7219 739.632 77.8688Q743.679 80.0157 747.684 82.2373Q751.69 84.4588 755.654 86.7543Q759.618 89.0497 763.538 91.4182Q767.459 93.7868 771.335 96.2276Q775.211 98.6684 779.042 101.181Q782.872 103.693 786.654 106.276Q790.437 108.859 794.172 111.511Q797.906 114.164 801.591 116.885Q805.275 119.606 808.909 122.395Q812.542 125.184 816.123 128.041Q819.704 130.897 823.232 133.818Q826.76 136.74 830.232 139.727Q833.705 142.714 837.122 145.765Q840.539 148.815 843.899 151.929Q847.258 155.043 850.56 158.218Q853.861 161.393 857.103 164.629Q861.362 168.891 865.516 173.256Q869.67 177.621 873.716 182.086Q877.761 186.551 881.696 191.114Q885.632 195.677 889.454 200.335Q893.276 204.992 896.983 209.742Q900.691 214.492 904.281 219.332Q907.87 224.171 911.341 229.097Q914.811 234.022 918.16 239.031Q921.508 244.041 924.734 249.13Q927.959 254.22 931.058 259.387Q934.158 264.554 937.13 269.795Q940.102 275.037 942.945 280.349Q945.788 285.662 948.5 291.042Q951.212 296.423 953.792 301.868Q956.372 307.313 958.817 312.82Q961.263 318.327 963.573 323.892Q965.883 329.457 968.056 335.077Q970.229 340.697 972.264 346.368Q974.299 352.039 976.195 357.759Q978.09 363.478 979.845 369.242Q981.6 375.006 983.214 380.812Q984.827 386.617 986.298 392.46Q987.769 398.304 989.096 404.181Q990.424 410.058 991.607 415.966Q992.79 421.875 993.828 427.81Q994.866 433.745 995.759 439.704Q996.652 445.663 997.398 451.642Q998.145 457.621 998.744 463.616Q999.344 469.612 999.797 475.62Q1000.25 481.629 1000.56 487.646Q1000.86 493.664 1001.02 499.687Q1001.18 505.711 1001.19 511.736Q1001.22 516.39 1001.17 521.043Q1001.11 525.697 1000.97 530.349Q1000.82 535 1000.59 539.648Q1000.35 544.296 1000.03 548.939Q999.71 553.581 999.299 558.217Q998.888 562.853 998.388 567.48Q997.888 572.107 997.3 576.723Q996.712 581.34 996.035 585.944Q995.359 590.549 994.595 595.14Q993.831 599.73 992.979 604.306Q992.127 608.881 991.188 613.439Q990.249 617.997 989.223 622.536Q988.196 627.076 987.084 631.595Q985.971 636.114 984.772 640.61Q983.573 645.107 982.288 649.58Q981.004 654.053 979.634 658.501Q978.264 662.948 976.809 667.369Q975.354 671.79 973.815 676.182Q972.276 680.574 970.653 684.936Q969.031 689.297 967.325 693.627Q965.619 697.957 963.83 702.254Q962.042 706.551 960.172 710.812Q958.302 715.074 956.351 719.299Q954.399 723.524 952.368 727.711Q950.336 731.898 948.225 736.045Q946.113 740.193 943.923 744.299Q941.733 748.405 939.464 752.469Q937.196 756.532 934.85 760.552Q932.504 764.571 930.082 768.545Q927.66 772.519 925.162 776.446Q922.665 780.373 920.092 784.251Q917.52 788.13 914.874 791.958C899.453 814.337 882.131 836.038 862.844 855.231C767.753 949.861 644.813 1003.39 510.154 1002.98Q504.173 1002.94 498.195 1002.76Q492.217 1002.58 486.245 1002.25Q480.274 1001.92 474.312 1001.44Q468.35 1000.97 462.401 1000.35Q456.452 999.727 450.521 998.961Q444.589 998.195 438.678 997.285Q432.767 996.375 426.879 995.321Q420.992 994.266 415.133 993.069Q409.273 991.871 403.444 990.53Q397.615 989.19 391.821 987.708Q386.027 986.225 380.271 984.602Q374.514 982.978 368.799 981.215Q363.085 979.451 357.414 977.548Q351.744 975.646 346.122 973.605Q340.5 971.565 334.93 969.387Q329.359 967.21 323.844 964.898Q318.328 962.585 312.87 960.138Q307.413 957.692 302.017 955.112Q296.62 952.533 291.289 949.823Q285.957 947.113 280.694 944.273Q275.43 941.434 270.237 938.466Q265.044 935.499 259.925 932.406Q254.806 929.313 249.765 926.095Q244.723 922.878 239.761 919.539Q234.799 916.199 229.921 912.739Q225.042 909.28 220.249 905.702Q215.457 902.124 210.753 898.43Q206.049 894.737 201.436 890.929Q196.824 887.122 192.306 883.203Q187.788 879.284 183.367 875.255Q178.946 871.227 174.625 867.092Q170.304 862.957 166.085 858.718Q161.744 854.39 157.511 849.956Q153.279 845.521 149.157 840.984Q145.035 836.447 141.026 831.809Q137.018 827.171 133.125 822.435Q129.232 817.7 125.458 812.87Q121.684 808.039 118.03 803.117Q114.376 798.195 110.845 793.185Q107.313 788.174 103.907 783.077Q100.501 777.981 97.2214 772.801Q93.9421 767.622 90.7917 762.364Q87.6414 757.105 84.6219 751.77Q81.6025 746.435 78.7158 741.028Q75.8291 735.62 73.0769 730.142Q70.3248 724.665 67.7088 719.121Q65.0928 713.577 62.6146 707.97Q60.1364 702.363 57.7975 696.697C53.0971 685.338 48.2132 673.872 44.7481 662.068C51.9433 666.483 79.8443 728.663 97.7464 742.094Q101.398 746.923 105.187 751.646Q108.976 756.368 112.9 760.979Q116.824 765.589 120.879 770.085Q124.934 774.581 129.117 778.958Q133.3 783.335 137.607 787.59Q141.915 791.845 146.343 795.974Q150.771 800.102 155.316 804.102Q159.862 808.101 164.521 811.968Q169.179 815.835 173.948 819.566Q178.716 823.296 183.59 826.888Q188.464 830.48 193.439 833.93Q198.415 837.38 203.488 840.685Q208.56 843.99 213.726 847.147Q218.892 850.305 224.147 853.312Q229.402 856.319 234.741 859.173Q240.081 862.028 245.5 864.727C257.065 870.603 269.463 877.522 282.011 881.007L284.02 882.249C298.682 887.608 313.361 893.233 328.698 896.363L329.16 896.469C344.5 898.295 359.577 901.683 374.86 903.818C392.549 906.289 410.193 907.012 428.018 907.476C443.069 907.868 458.33 906.868 473.307 905.476C546.651 898.656 616.523 874.318 680.02 837.393C696.172 828.001 715.638 816.417 729.248 803.5L729.117 803.103C721.917 790.343 720.145 774.33 716.012 760.375C713.565 752.113 709.935 744.827 705.946 737.242C713.135 732.348 745.471 691.535 750.429 683.22C785.779 637.988 810.911 582.574 823.836 526.721C827.457 511.075 829.291 495.311 832.173 479.566C846.666 499.206 857.263 521.05 869.811 541.838C872.967 547.065 876.969 551.729 880.182 556.894C881.838 557.699 883.49 558.392 885.377 558.285C890.57 557.99 893.183 551.202 896.307 547.799C896.43 547.665 896.556 547.533 896.681 547.4L897.856 545.93C902.023 528.743 904.373 511.272 906.129 493.691L906.916 493.023C906.884 485.711 908.106 478.468 907.94 471.159C908.653 448.228 906.412 425.707 905.615 402.855L905.531 402.56C904.476 396.799 904.36 390.601 903.861 384.756L903.085 384.074Q902.687 379.764 902.2 375.463Q901.714 371.162 901.14 366.872Q900.566 362.582 899.905 358.304Q899.243 354.027 898.494 349.763Q897.746 345.5 896.91 341.253Q896.075 337.006 895.153 332.777Q894.231 328.548 893.223 324.339Q892.215 320.129 891.121 315.941Q890.027 311.754 888.848 307.589Q887.669 303.424 886.405 299.284Q885.141 295.145 883.793 291.031Q882.445 286.918 881.013 282.834Q879.581 278.749 878.066 274.694Q876.552 270.64 874.954 266.617Q873.357 262.594 871.678 258.604Q869.999 254.615 868.239 250.66Q866.479 246.706 864.638 242.788Q862.798 238.871 860.878 234.992Q858.958 231.112 856.959 227.273Q854.96 223.434 852.883 219.636Q850.806 215.839 848.652 212.084Q846.499 208.33 844.268 204.62Q842.038 200.91 839.733 197.247Q837.428 193.584 835.048 189.968Q832.669 186.352 830.216 182.786Q827.763 179.22 825.238 175.704Q822.712 172.189 820.116 168.726Q817.52 165.263 814.853 161.853Q812.186 158.444 809.451 155.089Q806.715 151.735 803.912 148.437Q801.108 145.139 798.238 141.9Q795.368 138.66 792.432 135.479L791.797 135.217C788.321 130.853 783.685 127.549 780.364 123.202L781.281 122.979L781.572 122.468C781.483 122.32 781.404 122.164 781.303 122.023C776.314 115.025 754.422 101.565 746.416 96.3154C736.116 89.5619 725.904 82.6627 715.202 76.5523Q707.673 72.3256 699.978 68.4097Q692.282 64.4938 684.434 60.8952Q676.585 57.2966 668.596 54.0213Q660.607 50.746 652.491 47.7995Q644.375 44.8531 636.145 42.2402Q627.915 39.6274 619.586 37.3527Q611.257 35.0779 602.841 33.1449Q594.426 31.212 585.939 29.6241C573.486 27.2626 560.845 25.3997 548.291 23.6584C542.681 22.8803 537.005 22.4525 531.431 21.4581Z"/><path fill="#FEFEFE" d="M548.454 940.337C549.626 940.686 551.154 941.026 552.074 941.874C552.991 942.72 553.679 943.768 553.665 945.063C553.641 947.353 552.064 948.849 550.586 950.368C549.521 950 548.253 949.633 547.368 948.913C546.354 948.089 545.598 947.133 545.537 945.772C545.436 943.488 547.06 941.918 548.454 940.337Z"/><path fill="#FEFEFE" d="M962.026 613.854C963.355 613.984 965.142 614.096 966.296 614.802C967.302 615.416 968.101 616.24 968.288 617.435C968.638 619.677 967.476 621.146 966.255 622.877C964.973 622.768 963.306 622.753 962.17 622.093C961.043 621.439 960.339 620.637 960.093 619.355C959.671 617.155 960.844 615.567 962.026 613.854Z"/><path fill="#FEFEFE" d="M729.393 896.36C730.661 896.688 732.295 896.982 733.303 897.87C734.284 898.733 734.89 899.592 734.883 900.945C734.874 903.124 733.397 904.555 732.037 906.062C730.704 905.874 728.817 905.479 727.816 904.527C726.835 903.593 726.338 902.708 726.407 901.319C726.52 899.064 727.88 897.827 729.393 896.36Z"/><path fill="#46993D" d="M836.281 691.088C842.421 679.32 850.658 668.769 857.765 657.588C861.005 652.491 863.283 646.87 866.368 641.695L866.589 641.33C866.748 655.786 863.215 670.645 852.774 681.185C848.246 685.756 842.507 689.37 836.281 691.088Z"/><path fill="#46993D" d="M916.59 487.964C921.739 491.051 924.608 494.545 926.12 500.408C928.22 508.555 927.375 517.31 923.052 524.608C917.513 533.958 907.296 541.002 897.856 545.93C902.023 528.743 904.373 511.272 906.129 493.691L906.916 493.023Q911.69 490.373 916.59 487.964Z"/><path fill="#46993D" d="M284.02 882.249C298.682 887.608 313.361 893.233 328.698 896.363L329.16 896.469C333.51 903.037 348.114 920.941 346.757 928.675C346.541 929.903 346.062 930.959 344.924 931.593C343.648 932.304 342.121 932.182 340.751 931.888C320.277 927.487 294.861 899.735 284.02 882.249Z"/><path fill="#008FCC" d="M880.182 556.894C881.838 557.699 883.49 558.392 885.377 558.285C890.57 557.99 893.183 551.202 896.307 547.799C896.43 547.665 896.556 547.533 896.681 547.4Q895.477 559.223 892.635 570.762C889.512 583.083 873.767 631.507 866.755 639.571C863.369 624.472 855.381 615.746 851.81 602.286C855.019 597.428 859.221 593.599 863.34 589.541C872.557 580.46 878.463 569.828 880.182 556.894Z"/><path fill="#5AA942" d="M905.615 402.855C914.592 406.357 942.614 415.803 946.88 424.623C948.134 427.217 947.412 430.412 946.363 432.94C941.631 444.344 930.001 456.039 920.148 463.163C916.226 465.999 911.735 468.206 907.94 471.159C908.653 448.228 906.412 425.707 905.615 402.855Z"/><path fill="#46993D" d="M906.472 651.872C909.685 654.457 911.348 659.997 912.101 663.957C916.254 685.789 909.252 710.462 896.768 728.489C890.472 737.58 883.175 745.784 871.829 747.851C869.538 746.705 867.703 745.318 866.361 743.088C865.145 741.067 864.207 738.065 864.885 735.74C866.924 728.747 870.378 722.474 872.713 715.624C875.351 707.888 875.735 698.329 880.165 691.345C883.321 686.368 887.632 682.209 891.652 677.954C899.062 670.111 902.733 661.843 906.472 651.872Z"/><path fill="#46993D" d="M729.117 803.103C737.363 798.615 744.733 791.547 751.777 785.368C770.552 768.9 789.249 751.413 805.423 732.329C814.703 721.377 822.938 709.303 832.738 698.866C832.16 714.629 830.3 730.313 820.306 743.177C817.052 747.366 812.947 750.786 810.333 755.458C807.898 759.809 806.507 764.766 804.489 769.323C799.942 779.585 792.372 788.456 784.209 796.028C774.674 804.873 761.078 814.862 747.308 814.094C740.163 813.695 734.643 809.886 730.153 804.597Q729.694 804.054 729.248 803.5L729.117 803.103Z"/><path fill="#5AA942" d="M792.432 135.479C820.047 141.779 869.88 197.167 887.797 219.539Q904.91 240.879 919.34 264.117C947.511 308.933 966.5 357.703 978.405 409.169C982.227 425.69 985.634 441.988 987.281 458.885C982.451 450.727 977.531 442.591 973.129 434.192C969.6 427.459 966.645 419.828 962.225 413.669C960.46 411.208 958.66 409.523 955.965 408.157C949.79 408.318 943.776 409.856 937.639 410.035C933.327 406.609 930.836 402.528 927.491 398.246C921.951 391.155 911.858 388.182 903.861 384.756L903.085 384.074Q902.687 379.764 902.2 375.463Q901.714 371.162 901.14 366.872Q900.566 362.582 899.905 358.304Q899.243 354.027 898.494 349.763Q897.746 345.5 896.91 341.253Q896.075 337.006 895.153 332.777Q894.231 328.548 893.223 324.339Q892.215 320.129 891.121 315.941Q890.027 311.754 888.848 307.589Q887.669 303.424 886.405 299.284Q885.141 295.145 883.793 291.031Q882.445 286.918 881.013 282.834Q879.581 278.749 878.066 274.694Q876.552 270.64 874.954 266.617Q873.357 262.594 871.678 258.604Q869.999 254.615 868.239 250.66Q866.479 246.706 864.638 242.788Q862.798 238.871 860.878 234.992Q858.958 231.112 856.959 227.273Q854.96 223.434 852.883 219.636Q850.806 215.839 848.652 212.084Q846.499 208.33 844.268 204.62Q842.038 200.91 839.733 197.247Q837.428 193.584 835.048 189.968Q832.669 186.352 830.216 182.786Q827.763 179.22 825.238 175.704Q822.712 172.189 820.116 168.726Q817.52 165.263 814.853 161.853Q812.186 158.444 809.451 155.089Q806.715 151.735 803.912 148.437Q801.108 145.139 798.238 141.9Q795.368 138.66 792.432 135.479Z"/><path fill="#5AA942" d="M750.429 683.22C785.779 637.988 810.911 582.574 823.836 526.721C827.457 511.075 829.291 495.311 832.173 479.566C846.666 499.206 857.263 521.05 869.811 541.838C872.967 547.065 876.969 551.729 880.182 556.894C878.463 569.828 872.557 580.46 863.34 589.541C859.221 593.599 855.019 597.428 851.81 602.286C855.381 615.746 863.369 624.472 866.755 639.571L866.589 641.33L866.368 641.695C863.283 646.87 861.005 652.491 857.765 657.588C850.658 668.769 842.421 679.32 836.281 691.088C833.859 693.464 833.431 695.616 832.738 698.866C822.938 709.303 814.703 721.377 805.423 732.329C789.249 751.413 770.552 768.9 751.777 785.368C744.733 791.547 737.363 798.615 729.117 803.103C721.917 790.343 720.145 774.33 716.012 760.375C713.565 752.113 709.935 744.827 705.946 737.242C713.135 732.348 745.471 691.535 750.429 683.22Z"/><path fill="#008FCC" d="M39.531 380.412C46.604 359.162 53.3392 338.115 62.1735 317.481Q65.0953 310.705 68.2162 304.019Q71.3371 297.333 74.6545 290.742Q77.9718 284.151 81.4827 277.661Q84.9935 271.171 88.6949 264.787Q92.3962 258.404 96.2847 252.133Q100.173 245.862 104.245 239.709Q108.318 233.555 112.57 227.525Q116.823 221.495 121.252 215.593Q125.681 209.692 130.283 203.924Q134.884 198.156 139.655 192.526Q144.425 186.897 149.36 181.411Q154.295 175.925 159.39 170.587Q164.484 165.25 169.735 160.066Q174.986 154.881 180.387 149.854Q185.789 144.827 191.337 139.962Q196.885 135.098 202.574 130.399Q206.215 127.435 209.912 124.541Q213.609 121.647 217.361 118.825Q221.113 116.002 224.919 113.253Q228.724 110.503 232.582 107.827Q236.44 105.151 240.348 102.549Q244.256 99.948 248.214 97.4221Q252.172 94.8961 256.177 92.4467Q260.182 89.9973 264.234 87.6253Q268.286 85.2532 272.383 82.9595Q276.479 80.6657 280.619 78.451Q284.759 76.2364 288.94 74.1017Q293.122 71.967 297.344 69.913Q301.566 67.859 305.826 65.8865Q310.087 63.914 314.384 62.0237Q318.682 60.1333 323.015 58.3259Q327.348 56.5185 331.716 54.7947Q336.083 53.0709 340.482 51.4313Q344.881 49.7916 349.312 48.2368Q353.742 46.682 358.201 45.2126Q362.66 43.7432 367.146 42.3597Q371.633 40.9762 376.145 39.6792Q380.658 38.3821 385.194 37.172Q389.73 35.9618 394.289 34.8391Q398.848 33.7163 403.427 32.6813Q408.007 31.6463 412.605 30.6995Q417.204 29.7527 421.82 28.8943Q426.436 28.036 431.067 27.2665Q435.699 26.497 440.344 25.8167Q444.99 25.1363 449.647 24.5453Q454.305 23.9543 458.973 23.4528Q463.641 22.9514 468.318 22.5397Q472.995 22.1281 477.679 21.8063C495.354 20.6839 513.77 19.6759 531.431 21.4581C537.005 22.4525 542.681 22.8803 548.291 23.6584C560.845 25.3997 573.486 27.2626 585.939 29.6241Q594.426 31.212 602.841 33.1449Q611.257 35.0779 619.586 37.3526Q627.915 39.6274 636.145 42.2402Q644.375 44.853 652.491 47.7995Q660.607 50.746 668.596 54.0213Q676.585 57.2966 684.434 60.8952Q692.282 64.4938 699.978 68.4097Q707.673 72.3256 715.202 76.5523C725.904 82.6627 736.116 89.5619 746.416 96.3154C754.422 101.565 776.314 115.025 781.303 122.023C781.404 122.164 781.483 122.32 781.572 122.468L781.281 122.979L780.364 123.202C783.685 127.549 788.321 130.853 791.797 135.217L792.432 135.479Q795.368 138.66 798.238 141.9Q801.108 145.139 803.912 148.437Q806.715 151.735 809.451 155.089Q812.186 158.444 814.853 161.853Q817.52 165.263 820.116 168.726Q822.712 172.189 825.238 175.704Q827.763 179.22 830.216 182.786Q832.669 186.352 835.048 189.968Q837.428 193.584 839.733 197.247Q842.038 200.91 844.268 204.62Q846.499 208.33 848.652 212.084Q850.806 215.839 852.883 219.636Q854.96 223.434 856.959 227.273Q858.958 231.112 860.878 234.992Q862.798 238.871 864.638 242.788Q866.479 246.706 868.239 250.66Q869.999 254.615 871.678 258.604Q873.357 262.594 874.954 266.617Q876.552 270.639 878.066 274.694Q879.581 278.749 881.013 282.834Q882.445 286.918 883.793 291.031Q885.141 295.145 886.405 299.284Q887.669 303.424 888.848 307.589Q890.027 311.754 891.121 315.941Q892.215 320.129 893.223 324.339Q894.231 328.548 895.153 332.777Q896.075 337.006 896.91 341.253Q897.746 345.5 898.494 349.763Q899.243 354.027 899.905 358.304Q900.566 362.582 901.14 366.872Q901.714 371.162 902.2 375.463Q902.687 379.764 903.085 384.074L903.861 384.756C904.36 390.601 904.476 396.799 905.531 402.56L905.615 402.855C906.412 425.707 908.653 448.228 907.94 471.159C908.106 478.468 906.884 485.711 906.916 493.023L906.129 493.691C904.373 511.272 902.023 528.743 897.856 545.93L896.681 547.4C896.556 547.533 896.43 547.665 896.307 547.799C893.183 551.202 890.57 557.99 885.377 558.285C883.49 558.392 881.838 557.699 880.182 556.894C876.969 551.729 872.967 547.065 869.811 541.838C857.263 521.05 846.666 499.206 832.173 479.566C829.291 495.311 827.457 511.075 823.836 526.721C810.911 582.574 785.779 637.988 750.429 683.22C745.471 691.535 713.135 732.348 705.946 737.242C709.935 744.827 713.565 752.113 716.012 760.375C720.145 774.33 721.917 790.343 729.117 803.103L729.248 803.5C715.638 816.417 696.172 828.001 680.02 837.393C616.523 874.318 546.651 898.656 473.307 905.476C458.33 906.868 443.069 907.868 428.018 907.476C410.193 907.012 392.549 906.289 374.86 903.818C359.577 901.683 344.5 898.295 329.16 896.469L328.698 896.363C313.361 893.233 298.682 887.608 284.02 882.249L282.011 881.007C269.463 877.522 257.065 870.603 245.5 864.727Q240.081 862.028 234.741 859.173Q229.402 856.319 224.147 853.312Q218.892 850.304 213.726 847.147Q208.56 843.99 203.488 840.685Q198.415 837.38 193.439 833.93Q188.464 830.48 183.59 826.888Q178.716 823.296 173.948 819.565Q169.179 815.835 164.521 811.968Q159.862 808.101 155.316 804.102Q150.771 800.102 146.343 795.974Q141.915 791.845 137.607 787.59Q133.3 783.335 129.117 778.958Q124.934 774.581 120.879 770.085Q116.824 765.589 112.9 760.978Q108.976 756.368 105.187 751.645Q101.398 746.923 97.7464 742.094C79.8443 728.663 51.9433 666.483 44.7481 662.068C38.3564 649.086 35.8732 632.917 32.7818 618.851Q31.1333 611.501 29.7143 604.104Q28.2954 596.706 27.1072 589.268Q25.919 581.83 24.9629 574.359Q24.0067 566.887 23.2834 559.39Q22.5602 551.892 22.0705 544.376Q21.5809 536.859 21.3253 529.331Q21.0697 521.803 21.0485 514.271Q21.0273 506.739 21.2404 499.209Q21.4535 491.68 21.9008 484.161Q22.3481 476.642 23.0291 469.14Q23.71 461.639 24.6241 454.162Q25.5381 446.685 26.6843 439.241Q27.8306 431.796 29.2078 424.391Q30.5851 416.985 32.1921 409.626Q33.7991 402.267 35.6343 394.962Q37.4694 387.657 39.531 380.412Z"/><path fill="#FEFEFE" d="M751.548 108.25C753.348 108.491 755.721 108.727 756.715 110.501C757.792 112.423 756.578 114.629 755.82 116.417C754.703 116.261 753.425 116.099 752.366 115.719C751.087 115.26 750.721 114.46 750.161 113.318C750.092 111.308 750.705 110.049 751.548 108.25Z"/><path fill="#FEFEFE" d="M385.975 334.382C387.177 334.719 388.767 335.068 389.657 335.995C390.542 336.916 391.121 337.991 391.026 339.305C390.882 341.306 389.514 342.659 388.206 344.013C386.83 343.669 385.057 343.358 383.925 342.466C383.086 341.804 382.44 340.66 382.512 339.58C382.669 337.214 384.345 335.873 385.975 334.382Z"/><path fill="#FEFEFE" d="M458.655 728.703C460.029 728.912 461.306 729.15 462.438 729.997C463.481 730.777 464.146 731.799 464.186 733.139C464.252 735.357 462.871 736.721 461.477 738.23C460.114 738.122 458.466 737.832 457.369 736.935C456.316 736.074 455.711 735.152 455.749 733.744C455.809 731.544 457.222 730.168 458.655 728.703Z"/><path fill="#FEFEFE" d="M480.93 551.343C482.535 551.495 484.477 551.589 485.736 552.742C486.408 553.358 486.676 553.988 486.775 554.86C487.029 557.097 485.507 558.872 484.25 560.553C482.803 560.261 480.89 559.995 479.705 559.064C478.79 558.346 478.1 557.506 478.088 556.302C478.065 554.069 479.474 552.825 480.93 551.343Z"/><path fill="#FEFEFE" d="M548.046 638.244C549.387 638.424 551.239 638.955 552.232 639.916C553.214 640.868 553.721 641.797 553.647 643.199C553.528 645.446 552.147 646.652 550.604 648.062C549.209 647.959 547.625 647.576 546.518 646.682C545.526 645.88 545.023 644.837 545.051 643.558C545.103 641.256 546.544 639.806 548.046 638.244Z"/><path fill="#FEFEFE" d="M426.484 437.376C427.842 437.427 429.624 437.564 430.76 438.377C431.794 439.118 432.519 439.969 432.662 441.281C432.896 443.437 431.639 445.051 430.433 446.668C428.782 446.613 427.043 446.536 425.628 445.573C424.65 444.908 423.995 443.925 423.934 442.725C423.823 440.545 425.211 438.962 426.484 437.376Z"/><path fill="#FEFEFE" d="M321.328 442.982C322.846 443.307 324.596 443.717 325.733 444.865C326.642 445.783 327.172 446.713 327.045 448.047C326.843 450.17 325.251 451.538 323.824 452.93C322.182 452.41 320.463 451.911 319.238 450.629C318.342 449.692 317.959 448.512 318.108 447.233C318.334 445.298 319.924 444.115 321.328 442.982Z"/><path fill="#FEFEFE" d="M614.53 81.9176C615.971 82.3315 617.309 82.8865 618.334 84.0107C619.242 85.0058 619.633 86.0928 619.425 87.4551C619.074 89.759 617.439 91.0341 615.791 92.4713C614.249 92.0156 612.384 91.4218 611.389 90.0589C610.524 88.8741 610.313 87.9994 610.59 86.5554C611.004 84.3901 612.885 83.1281 614.53 81.9176Z"/><path fill="#95CD79" d="M209.553 469.529C211.048 469.461 212.59 469.351 214.062 469.677C216.8 470.281 219.641 472.16 221.012 474.64C221.876 476.202 222.121 477.961 221.615 479.682C220.794 482.48 218.53 483.916 216.135 485.276C215.272 485.364 214.376 485.458 213.508 485.395C210.743 485.192 207.538 483.484 205.896 481.249C204.573 479.448 204.041 477.265 204.513 475.068C205.116 472.262 207.262 470.931 209.553 469.529Z"/><path fill="#FEFEFE" d="M256.579 112.664C256.88 112.782 257.198 112.862 257.481 113.018C258.419 113.538 258.455 114.295 258.697 115.234C258.019 117.849 255.873 119.817 253.986 121.649C247.439 128.005 238.066 136.1 228.393 136.005C227.105 135.231 226.621 135.096 225.929 133.725C226.019 131.761 226.591 130.577 227.825 129.041C233.996 121.358 246.795 113.947 256.579 112.664Z"/><path fill="#95CD79" d="M551.397 218.398C551.607 218.415 551.818 218.425 552.027 218.45C554.691 218.764 556.634 219.769 558.194 221.986C560.504 225.269 560.697 229.7 560.034 233.529C559.301 237.769 557.266 242.074 553.549 244.464C550.538 246.4 548.203 246.018 544.846 245.342C541.678 244.337 537.537 243.006 535.844 239.928C534.863 238.145 534.919 236.2 535.525 234.299C537.803 227.153 545.059 221.715 551.397 218.398Z"/><path fill="#95CD79" d="M318.734 257.504C321.034 257.415 322.697 257.765 324.816 258.661C331.05 261.299 342.574 267.752 344.974 274.447C345.498 275.908 345.544 277.517 344.707 278.884C343.425 280.975 341.041 281.544 338.855 282.241C336.003 282.233 333.295 282.144 330.508 281.447C324.161 279.861 316.031 275.835 312.689 269.962C311.703 268.229 311.283 266.315 311.838 264.367C312.824 260.91 315.872 259.236 318.734 257.504Z"/><path fill="#95CD79" d="M149.748 448.554C157.226 448.179 165.066 450.585 172.124 452.797C178.163 454.689 187.497 457.126 190.489 463.3C192.492 467.434 191.911 473.318 190.241 477.46C189.49 479.325 188.767 480.378 186.917 481.204C182.37 477.147 178.909 471.008 173.637 467.918C166.709 463.857 148.944 461.549 144.922 455.411C144.379 454.583 144.144 453.571 144.447 452.624C145.198 450.285 147.711 449.526 149.748 448.554Z"/><path fill="#FEFEFE" d="M494.296 154.611C500.496 153.914 508.107 154.154 513.56 157.478C515.752 158.814 517.703 160.847 518.193 163.449C518.634 165.787 517.9 168.121 516.515 170.014C511.845 176.398 502.367 177.541 495.131 178.829C489.095 179.74 481.241 180.643 475.772 177.387C473.77 176.194 472.266 174.404 471.78 172.096C471.222 169.446 472.101 166.783 473.614 164.604C478.264 157.908 486.831 156.085 494.296 154.611Z"/><path fill="#95CD79" d="M560.847 202.977Q562.562 202.957 564.265 203.158C575.238 204.464 575.848 213.752 581.23 221.1C584.214 225.173 588.206 228.591 591.377 232.549C593.679 235.422 595.956 239.123 595.366 242.964C594.793 246.695 592.123 248.809 589.213 250.857C585.209 252.577 580.702 254.016 576.325 254.249C573.68 254.39 570.874 254.068 568.88 252.155C564.245 247.71 568.35 233.657 567.375 227.408C566.2 219.865 558.522 213.848 558.19 206.486C558.646 204.911 559.703 204.071 560.847 202.977Z"/><path fill="#FEFEFE" d="M372.918 56.69C375.391 56.4765 378.566 55.9658 380.79 57.2737C381.135 58.3099 381.202 58.3211 380.686 59.2349C377.794 64.3478 368.239 68.7117 363.379 71.9576C356.22 76.7399 349.856 82.6663 342.717 87.4827C328.611 96.9993 309.879 101.934 293.556 106.154C292.058 106.269 290.559 106.381 289.06 106.214C287.174 106.003 285.765 105.516 284.553 104.002C284.092 97.6376 301.19 92.2152 305.532 88.9923C308.822 86.5496 310.669 82.3622 313.093 79.1321C319.815 70.1776 343.953 62.2904 354.785 59.7096C360.746 58.2894 366.855 57.5355 372.918 56.69Z"/><path fill="#FEFEFE" d="M180.456 165.11C182.626 163.273 184.726 161.793 187.315 160.575C192.765 158.01 198.849 156.546 204.549 154.616C212.796 151.825 226.695 145.309 235.428 146.173C240.324 146.657 244.755 150.101 249.254 151.885C254.534 150.037 265.354 145.143 270.642 147.761C272.257 148.561 273.096 150.6 273.369 152.277C273.637 153.916 273.5 156.439 272.497 157.847C271.499 159.247 268.609 160.449 267.065 161.21C263.346 163.043 259.604 164.743 256.062 166.916C250.592 170.274 245.164 174.445 239.292 177.033C235.678 178.626 231.83 179.418 227.914 179.77C218.414 178.888 211.526 168.969 201.763 166.33C194.856 164.463 187.534 164.991 180.456 165.11Z"/><path fill="#FEFEFE" d="M299.103 113.207C306.632 112.175 319.339 113.146 325.652 117.665C332.365 122.47 333.634 132.46 334.811 140.07C337.946 160.346 323.382 151.249 317.963 160.048C316.081 163.106 318.494 167.14 319.38 170.178C319.875 171.875 319.909 173.404 318.951 174.968C317.56 177.238 313.888 178.624 311.465 179.285C306.19 180.722 300.539 180.712 295.698 177.904C293.498 176.627 291.426 174.706 290.848 172.132C290.177 169.142 291.402 166.246 293.091 163.85C293.194 163.704 293.301 163.56 293.405 163.415C295.554 161.324 297.726 159.176 299.508 156.755C301.915 153.482 304.126 149.268 303.294 145.073C302.706 142.111 300.839 139.295 298.274 137.689C295.763 136.117 292.742 135.649 289.842 135.374C275.969 134.059 271.655 140.112 259.926 142.746C257.819 143.219 255.076 143.623 253.232 142.239C252.454 141.655 252.034 140.519 251.977 139.56C251.813 136.817 253.321 134.314 255.009 132.282C265.622 119.511 283.172 114.499 299.103 113.207Z"/><path fill="#FEFEFE" d="M470.804 45.7089C478.96 44.9583 487.492 45.5547 495.529 47.0456C506.674 49.1133 521.218 55.4321 527.613 65.2814C530.273 69.378 531.148 74.0199 529.944 78.7718C524.235 101.323 466.342 138.839 446.209 153.265C431.177 164.035 416.769 175.395 400.92 184.992C397.662 186.403 394.023 188.199 390.424 186.92C387.442 185.86 385.886 182.976 384.625 180.279C373.167 155.747 402.231 127.106 390.691 105.413C383.473 91.8442 369.087 97.4519 357.703 93.5889C356.153 93.0631 355.585 92.4549 354.838 91.0339C354.838 88.9066 355.516 87.4443 356.874 85.8029C368.219 72.084 422.478 54.5222 441.009 50.1481C450.793 47.8384 460.807 46.6322 470.804 45.7089Z"/><path fill="#95CD79" d="M619.716 201.298C617.844 200.762 615.803 200.276 614.091 199.334C609.864 197.009 606.965 192.796 605.796 188.177C600.36 166.691 620.206 161.36 630.375 148.128C635.156 141.906 636.802 134.031 640.735 127.341C644.445 121.032 650.084 117.332 657.054 115.54C662.228 114.21 667.693 114.076 672.988 114.598C684.147 115.7 694.66 119.932 705.694 121.625C714.164 122.924 726.741 119.804 734.026 124.497C736.112 125.842 737.838 128.173 738.292 130.636C738.595 132.277 738.212 133.799 737.228 135.13C733.164 140.624 721.848 141.73 715.633 142.555C720.936 145.146 726.282 147.722 732.172 148.626C746.396 150.81 743.885 135.999 752.564 130.163C762.502 123.481 780.261 133.169 790.998 135.079L791.797 135.217L792.432 135.479Q795.368 138.66 798.238 141.9Q801.108 145.139 803.912 148.437Q806.715 151.735 809.451 155.089Q812.186 158.444 814.853 161.853Q817.52 165.263 820.116 168.726Q822.712 172.189 825.238 175.704Q827.763 179.22 830.216 182.786Q832.669 186.352 835.048 189.968Q837.428 193.584 839.733 197.247Q842.038 200.91 844.268 204.62Q846.499 208.33 848.652 212.084Q850.806 215.839 852.883 219.636Q854.96 223.434 856.959 227.273Q858.958 231.112 860.878 234.992Q862.798 238.871 864.638 242.788Q866.479 246.706 868.239 250.66Q869.999 254.615 871.678 258.604Q873.357 262.594 874.954 266.617Q876.552 270.639 878.066 274.694Q879.581 278.749 881.013 282.834Q882.445 286.918 883.793 291.031Q885.141 295.145 886.405 299.284Q887.669 303.424 888.848 307.589Q890.027 311.754 891.121 315.941Q892.215 320.129 893.223 324.339Q894.231 328.548 895.153 332.777Q896.075 337.006 896.91 341.253Q897.746 345.5 898.494 349.763Q899.243 354.027 899.905 358.304Q900.566 362.582 901.14 366.872Q901.714 371.162 902.2 375.463Q902.687 379.764 903.085 384.074L903.861 384.756C904.36 390.601 904.476 396.799 905.531 402.56L905.615 402.855C906.412 425.707 908.653 448.228 907.94 471.159C908.106 478.468 906.884 485.711 906.916 493.023L906.129 493.691C904.373 511.272 902.023 528.743 897.856 545.93L896.681 547.4C896.556 547.533 896.43 547.665 896.307 547.799C893.183 551.202 890.57 557.99 885.377 558.285C883.49 558.392 881.838 557.699 880.182 556.894C876.969 551.729 872.967 547.065 869.811 541.838C857.263 521.05 846.666 499.206 832.173 479.566C829.291 495.311 827.457 511.075 823.836 526.721C810.911 582.574 785.779 637.988 750.429 683.22C745.471 691.535 713.135 732.348 705.946 737.242Q704.489 734.535 703.229 731.73Q701.97 728.926 700.914 726.039Q699.858 723.151 699.011 720.196Q698.164 717.24 697.53 714.232C691.742 686.137 712.228 678.199 712.523 654.123C712.765 634.292 704.45 626.509 691.763 613.292C679.738 600.765 683.312 594.429 683.517 579.243C683.639 570.233 680.072 562.593 673.773 556.312C657.514 540.1 633.418 544.721 614.373 552.95C602.771 557.963 591.263 565.763 578.162 565.586C559.666 565.337 541.725 550.837 529.426 538.223C512.567 520.933 503.351 502.625 503.795 478.254C504.247 453.475 513.286 428.929 530.34 410.772C537.042 403.636 544.976 397.041 550.855 389.214C555.935 382.449 557.551 373.084 563.858 367.27C572.145 359.631 588.048 361.493 598.533 358.501C602.99 357.229 607.45 355.739 611.684 353.844C623.752 348.44 640.577 337.54 654.067 338.155C666.979 338.744 668.244 357.194 675.561 364.93C675.712 365.089 675.866 365.246 676.018 365.404C679.886 365.596 684.136 365.489 687.867 366.583C700.7 370.35 695.828 383.402 703.6 387.344C707.076 389.107 712.798 388.999 716.392 387.653C726.489 383.874 722.002 372.249 725.897 364.785C734.225 348.824 778.306 376.382 794.687 370.877C796.857 370.147 798.606 368.768 799.545 366.646C800.614 364.23 800.728 361.488 799.638 359.063C793.859 346.208 771.874 347.165 762.631 338.049C756.64 332.139 746.821 315.3 739.152 313.166C731.822 311.126 732.206 330.589 725.814 334.359C723.919 335.476 721.354 335.769 719.254 335.114C710.23 332.298 713.753 315.062 709.019 308.273C705.849 303.727 701.473 308.894 697.36 307.657C692.12 306.081 695.015 300.469 692.412 297.34C691.68 296.459 690.478 295.929 689.33 295.987C687.814 296.063 686.247 297.204 685.183 298.205C684.305 299.032 683.429 300.217 683.502 301.482C683.804 306.698 692.413 309.294 695.917 312.183C697.689 313.644 699.817 315.981 699.73 318.45C699.673 320.081 698.622 321.39 697.487 322.456C694.763 325.014 690.753 327.163 686.92 326.932C678.609 326.429 674.615 317.188 669.699 311.85C664.759 306.486 658.255 304.137 651.111 303.761C636.651 303.001 623.605 308.895 614.223 319.875C610.488 324.246 607.343 329.211 603.041 333.063C595.44 339.869 584.825 342.414 574.819 341.826C569.118 341.491 563.593 340.11 559.772 335.563Q559.509 335.25 559.262 334.925Q559.015 334.599 558.786 334.261Q558.557 333.922 558.346 333.572Q558.134 333.223 557.942 332.862Q557.749 332.502 557.575 332.132Q557.402 331.762 557.248 331.384Q557.094 331.005 556.96 330.619Q556.826 330.233 556.712 329.84Q556.598 329.448 556.505 329.05Q556.412 328.652 556.34 328.25Q556.268 327.847 556.217 327.442Q556.166 327.037 556.136 326.629Q556.107 326.221 556.098 325.813Q556.09 325.404 556.103 324.996Q556.116 324.587 556.15 324.18Q556.184 323.773 556.24 323.368C559.686 296.578 580.234 308.831 589.473 301.232C601.857 291.046 581.207 279.592 582.361 269.567C583.246 261.882 600.708 258.322 606.544 253.996C617.713 245.717 624.125 230.326 638.39 226.732C652.083 223.282 670.433 230.244 683.162 222.427C691.519 217.295 690.443 206.27 696.474 199.299C700.874 194.214 707.205 192.295 712.333 188.225C712.38 187.861 712.453 187.453 712.39 187.087C711.227 180.334 691.054 183.712 684.142 177.068C680.84 173.894 679.831 169.37 679.908 164.93C680.056 156.434 684.903 151.649 690.665 146.18C686.061 147.801 681.585 149.484 677.427 152.084C651.029 168.598 675.438 184.28 671.168 200.776C670.208 204.484 667.444 207.613 664.154 209.488C660.631 211.496 656.907 212.041 652.994 211.017C642.034 208.148 637.9 200.539 632.558 191.523C628.637 196.108 625.488 199.193 619.716 201.298Z"/><path fill="#008FCC" d="M650.153 189.873C652.366 189.932 654.224 190.655 655.895 192.119C657.356 193.398 658.248 195.166 658.292 197.119C658.341 199.289 657.299 200.493 655.914 201.986C653.584 202.1 651.701 202.13 649.736 200.673C648.476 199.738 647.64 198.393 647.451 196.822C647.101 193.928 648.403 192.019 650.153 189.873Z"/><path fill="#008FCC" d="M814.009 401.262C819.104 403.417 823.36 407.327 826.208 412.058C828.993 416.686 829.982 420.597 828.651 425.831C827.802 425.982 827.031 426.025 826.178 425.914C822.993 425.502 820.288 423.498 818.412 420.973C814.215 415.322 813.085 408.083 814.009 401.262Z"/><path fill="#008FCC" d="M905.531 402.56C897.671 399.669 892.31 394.642 888.861 387.043C887.12 383.207 884.203 374.017 886.022 370.084C886.327 369.426 886.751 369.497 887.383 369.302C891.237 370.708 897.912 380.356 903.085 384.074L903.861 384.756C904.36 390.601 904.476 396.799 905.531 402.56Z"/><path fill="#008FCC" d="M836.624 435.752C845.268 439.907 853.966 446.083 860.339 453.296C867.11 460.961 871.11 472.224 881.259 476.259C890.634 479.988 899.572 475.001 907.94 471.159C908.106 478.468 906.884 485.711 906.916 493.023L906.129 493.691C901.42 496.223 895.771 497.742 890.464 498.267C880.734 499.23 873.094 495.361 865.754 489.36C860.012 484.667 854.968 478.791 849.707 473.557C844.624 468.501 838.694 463.564 834.282 457.923C832.325 455.421 830.145 452.461 829.917 449.197C829.523 443.569 833.2 439.7 836.624 435.752Z"/><path fill="#78CA4E" d="M750.429 683.22C750.422 671.907 750.443 660.526 749.166 649.269C747.16 631.593 740.813 613.971 744.438 596.046C749.164 572.674 774.225 564.553 777.323 545.717C778.826 536.582 775.416 527.499 769.971 520.264C759.649 506.549 744.097 495.67 729.4 486.966C720.719 481.825 711.441 476.591 701.682 473.896C659.28 462.184 649.256 507.484 605.987 500.866C595.03 499.19 584.268 493.192 577.742 484.129C573.453 478.172 571.351 470.897 572.66 463.585C576.982 439.439 610.336 443.883 627.468 436.987C637.288 433.035 644.185 425.304 652.684 419.397C670.332 407.128 699.695 410.844 716.128 423.625C725.833 431.173 731.963 442.495 744.039 446.916C759.701 452.649 776.367 447.677 792.395 450.621C809.403 453.745 822.632 465.639 832.173 479.566C829.291 495.311 827.457 511.075 823.836 526.721C810.911 582.574 785.779 637.988 750.429 683.22Z"/><path fill="#95CD79" d="M180.456 165.11C187.534 164.991 194.856 164.463 201.763 166.33C211.526 168.969 218.414 178.888 227.914 179.77C220.582 180.155 211.977 186.107 207.164 191.39C202.478 196.535 196.254 206.835 196.561 213.949C196.647 215.951 197.441 217.81 198.972 219.13C205.926 225.124 222.296 221.769 223.396 234.385C224.057 241.951 218.109 252.818 224.514 258.936C225.604 259.977 227.036 260.791 228.594 260.614C231.312 260.306 233.456 257.608 234.862 255.497C237.771 251.128 238.919 245.679 241.961 241.424C245.369 236.658 250.199 234.024 253.218 228.68C260.4 215.967 260.806 195.364 278.053 191.135C280.547 190.523 283.098 191.048 285.198 192.503C290.167 195.948 293.106 207.036 300 206.128C304.638 205.518 309.362 200.294 314.074 203.608C316.374 205.227 317.049 207.996 317.382 210.632C318.074 216.092 316.957 222.051 321.66 225.998C326.036 229.671 338.754 233.149 339.185 239.52C339.253 240.53 338.719 241.576 338.037 242.309C333.81 246.852 322.978 248.367 317.181 249.987C310.787 251.775 304.544 254.271 298.15 256.157C292.684 257.769 267.23 261.915 266.915 268.819C266.853 270.173 267.288 271.361 268.254 272.306C275.846 279.731 293.358 271.87 299.611 290.324C296.043 297.769 289.227 302.873 281.544 305.639C279.529 306.364 277.162 306.905 275.114 305.987C273.662 305.336 272.747 304.206 272.273 302.712C271.496 300.261 271.525 297.038 271.483 294.467C256.413 302.977 256.683 316.359 245.162 325.764C238.275 331.386 228.636 330.111 222.272 337.018C213.104 346.967 213.431 359.167 200.742 368.765C192.283 375.163 170.191 384.551 167.356 394.543C164.746 403.744 169.776 426.404 163.232 432.386C162.594 432.571 162.158 432.898 161.526 432.554C153.986 428.45 153.048 399.482 145.014 397.66C144.05 397.442 142.653 397.722 141.687 397.926C136.891 398.935 132.111 400.634 127.267 401.337C110.298 403.798 91.3999 402.132 80.8756 418.654C74.3908 428.835 72.8294 443.976 75.5948 455.575C76.7827 460.558 79.2783 465.747 83.8841 468.398C85.224 469.17 86.6103 469.625 88.0886 470.046L88.7943 469.9C100.145 467.441 112.711 447.413 124.743 454.436C125.89 455.105 126.703 456.122 126.972 457.443C128.559 465.253 109.402 481.727 115.998 487.388C121.785 492.355 140.805 481.409 142.277 491.042C142.75 494.136 142.154 497.307 141.659 500.361C139.656 512.713 138.048 521.566 149.035 530.346C153.817 534.168 161.465 538.622 167.765 537.847C170.933 537.457 173.022 535.591 174.843 533.086C180.331 525.532 181.283 518.51 192.124 516.678C198.207 515.65 204.557 517.119 210.677 517.191C223.168 517.339 236.68 512.857 247.61 521.281C255.472 527.341 258.865 537.755 267.557 542.863C272.094 545.529 277.711 546.389 282.812 547.272C295.094 549.398 307.82 551.724 317.661 560.01C331.477 571.642 331.898 592.393 347.954 602.468C366.874 614.34 399.983 613.848 415.615 631.013C419.017 634.749 421.4 639.516 421.858 644.587C422.713 654.048 416.685 662.529 410.781 669.291C401.194 680.271 396.052 686.387 396.986 701.748C397.801 715.144 402.371 733.129 392.749 744.495C381.068 758.293 357.498 752.369 359.098 777.887C359.828 789.525 366.976 804.785 358.244 814.863C353.452 820.394 336.946 823.58 337.068 829.702C337.191 835.899 341.945 841.627 343.298 847.729C336.779 871.813 311.529 861.098 328.698 896.363C313.361 893.233 298.682 887.608 284.02 882.249L282.011 881.007C269.463 877.522 257.065 870.603 245.5 864.727Q240.081 862.028 234.741 859.173Q229.402 856.319 224.147 853.312Q218.892 850.304 213.726 847.147Q208.56 843.99 203.488 840.685Q198.415 837.38 193.439 833.93Q188.464 830.48 183.59 826.888Q178.716 823.296 173.948 819.565Q169.179 815.835 164.521 811.968Q159.862 808.101 155.316 804.102Q150.771 800.102 146.343 795.974Q141.915 791.845 137.607 787.59Q133.3 783.335 129.117 778.958Q124.934 774.581 120.879 770.085Q116.824 765.589 112.9 760.978Q108.976 756.368 105.187 751.645Q101.398 746.923 97.7464 742.094C79.8443 728.663 51.9433 666.483 44.7481 662.068C38.3564 649.086 35.8732 632.917 32.7818 618.851Q31.1333 611.501 29.7143 604.104Q28.2954 596.706 27.1072 589.268Q25.919 581.83 24.9629 574.359Q24.0067 566.887 23.2834 559.39Q22.5602 551.892 22.0705 544.376Q21.5809 536.859 21.3253 529.331Q21.0697 521.803 21.0485 514.271Q21.0273 506.739 21.2404 499.209Q21.4535 491.68 21.9008 484.161Q22.3481 476.642 23.0291 469.14Q23.71 461.639 24.6241 454.162Q25.5381 446.685 26.6843 439.241Q27.8306 431.796 29.2078 424.391Q30.5851 416.985 32.1921 409.626Q33.7991 402.267 35.6343 394.962Q37.4694 387.657 39.531 380.412C41.1073 381.341 41.7437 381.811 42.2353 383.611C43.5837 388.548 42.3302 397.111 45.4314 401.135C50.7609 381.948 55.9591 362.889 62.9006 344.195C81.9267 292.959 113.307 240.08 148.584 198.27C158.393 186.645 168.085 174.106 180.456 165.11Z"/><path fill="#78CA4E" d="M242.013 591.611C272.147 588.589 269.25 611.923 285.805 626.273C293.974 633.353 305.755 636.264 315.431 640.824C325.11 645.386 334.836 652.657 338.347 663.201Q338.808 664.615 339.114 666.071Q339.421 667.527 339.568 669.008Q339.715 670.488 339.701 671.976Q339.688 673.463 339.514 674.941C337.69 689.428 323.066 691.429 316.182 702.185C310.359 711.282 307.266 722.667 302.272 732.352L300.146 726.278C297.635 719.847 295.291 713.249 291.474 707.45C274.426 681.549 238.059 686.8 213.782 670.919C204.457 664.818 198.937 656.148 196.717 645.256C194.663 635.174 195.839 624.123 201.684 615.461C210.182 602.867 227.514 594.497 242.013 591.611Z"/><path fill="#008FCC" d="M44.7481 662.068C38.3564 649.086 35.8732 632.917 32.7818 618.851Q31.1333 611.501 29.7143 604.104Q28.2954 596.706 27.1072 589.268Q25.919 581.83 24.9629 574.359Q24.0067 566.887 23.2834 559.39Q22.5602 551.892 22.0705 544.376Q21.5809 536.859 21.3253 529.331Q21.0697 521.803 21.0485 514.271Q21.0273 506.739 21.2404 499.209Q21.4535 491.68 21.9008 484.161Q22.3481 476.642 23.0291 469.14Q23.71 461.639 24.6241 454.162Q25.5381 446.685 26.6843 439.241Q27.8306 431.796 29.2078 424.391Q30.5851 416.985 32.1921 409.626Q33.7991 402.267 35.6343 394.962Q37.4694 387.657 39.531 380.412C41.1073 381.341 41.7437 381.811 42.2353 383.611C43.5837 388.548 42.3302 397.111 45.4314 401.135C42.3863 415.087 40.1347 428.181 41.404 442.548C45.6431 461.145 51.7369 478.081 68.6162 488.638C78.8627 495.047 90.4121 499.22 100.136 506.513C113.788 516.752 121.183 533.043 134.767 543.039C145.276 550.771 163.363 553.478 168.881 566.34C166.528 576.18 161.028 584.061 156.932 593.131C146.416 616.412 148.873 641.374 162.187 662.98C170.237 676.044 181.1 687.221 193.255 696.507C205.504 705.865 219.924 713.612 228.255 727.072C237.148 741.44 236.897 759.525 239.453 775.729Q241.965 791.826 246.268 807.54C251.717 826.869 259.919 844.993 270.129 862.261C273.783 868.439 279.012 874.574 282.011 881.007C269.463 877.522 257.065 870.603 245.5 864.727Q240.081 862.028 234.741 859.173Q229.402 856.319 224.147 853.312Q218.892 850.304 213.726 847.147Q208.56 843.99 203.488 840.685Q198.415 837.38 193.439 833.93Q188.464 830.48 183.59 826.888Q178.716 823.296 173.948 819.565Q169.179 815.835 164.521 811.968Q159.862 808.101 155.316 804.102Q150.771 800.102 146.343 795.974Q141.915 791.845 137.607 787.59Q133.3 783.335 129.117 778.958Q124.934 774.581 120.879 770.085Q116.824 765.589 112.9 760.978Q108.976 756.368 105.187 751.645Q101.398 746.923 97.7464 742.094C79.8443 728.663 51.9433 666.483 44.7481 662.068Z"/><path fill="#FEFEFE" d="M97.8491 629.747C99.53 629.965 101.311 630.476 102.457 631.828C103.092 632.577 103.295 633.449 103.267 634.403C103.197 636.807 101.808 638.086 100.23 639.706C98.8677 639.63 96.9806 639.207 95.941 638.254C95.0684 637.455 94.5765 636.665 94.5598 635.455C94.5234 632.807 96.08 631.458 97.8491 629.747Z"/><path fill="#0074B2" d="M44.7481 662.068C38.3564 649.086 35.8732 632.917 32.7818 618.851Q31.1333 611.501 29.7143 604.104Q28.2954 596.706 27.1072 589.268Q25.919 581.83 24.9629 574.359Q24.0067 566.887 23.2834 559.39Q22.5602 551.892 22.0705 544.376Q21.5809 536.859 21.3253 529.331Q21.0697 521.803 21.0485 514.271Q21.0273 506.739 21.2404 499.209Q21.4535 491.68 21.9008 484.161Q22.3481 476.642 23.0291 469.14Q23.71 461.639 24.6241 454.162Q25.5381 446.685 26.6843 439.241Q27.8306 431.796 29.2078 424.391Q30.5851 416.985 32.1921 409.626Q33.7991 402.267 35.6343 394.962Q37.4694 387.657 39.531 380.412C41.1073 381.341 41.7437 381.811 42.2353 383.611C43.5837 388.548 42.3302 397.111 45.4314 401.135C42.3863 415.087 40.1347 428.181 41.404 442.548C37.5972 448.339 37.6104 462.653 37.2428 469.688C34.9799 513.001 36.6824 553.684 45.4921 596.314C53.6765 635.918 68.7415 682.08 87.1255 718.138C90.4344 724.628 97.2341 735.189 97.7464 742.094C79.8443 728.663 51.9433 666.483 44.7481 662.068Z"/></svg> 